<mxfile host="app.diagrams.net" modified="2022-12-13T22:01:09.815Z" agent="5.0 (Windows NT 10.0; Win64; x64) AppleWebKit/537.36 (KHTML, like Gecko) Chrome/108.0.0.0 Safari/537.36" etag="Xx2HmobGvvGXJvrOv3wu" version="20.6.2" type="github">
  <diagram name="Page-1" id="90a13364-a465-7bf4-72fc-28e22215d7a0">
    <mxGraphModel dx="1422" dy="754" grid="1" gridSize="10" guides="1" tooltips="1" connect="1" arrows="1" fold="1" page="1" pageScale="1.5" pageWidth="1169" pageHeight="826" background="none" math="0" shadow="0">
      <root>
        <mxCell id="0" style=";html=1;" />
        <mxCell id="1" style=";html=1;" parent="0" />
        <mxCell id="3a17f1ce550125da-8" value="/stewart/linear_actuator" style="whiteSpace=wrap;html=1;shadow=1;fontSize=18;fillColor=#f5f5f5;strokeColor=#666666;" parent="1" vertex="1">
          <mxGeometry x="760" y="480" width="207" height="56" as="geometry" />
        </mxCell>
        <mxCell id="RNQJXxysi92MJcqBM2zN-52" style="edgeStyle=orthogonalEdgeStyle;rounded=0;orthogonalLoop=1;jettySize=auto;html=1;exitX=1;exitY=0.5;exitDx=0;exitDy=0;entryX=0;entryY=0.5;entryDx=0;entryDy=0;startArrow=none;startFill=0;endArrow=classic;endFill=1;" parent="1" source="RNQJXxysi92MJcqBM2zN-45" target="3a17f1ce550125da-8" edge="1">
          <mxGeometry relative="1" as="geometry" />
        </mxCell>
        <mxCell id="RNQJXxysi92MJcqBM2zN-45" value="ik" style="whiteSpace=wrap;html=1;shadow=1;fontSize=18;fillColor=#f5f5f5;strokeColor=#666666;" parent="1" vertex="1">
          <mxGeometry x="491.5" y="480" width="207" height="56" as="geometry" />
        </mxCell>
        <mxCell id="RNQJXxysi92MJcqBM2zN-63" value="/gz_cmd" style="whiteSpace=wrap;html=1;shadow=1;fontSize=18;fillColor=#f5f5f5;strokeColor=#666666;" parent="1" vertex="1">
          <mxGeometry x="760" y="536" width="207" height="56" as="geometry" />
        </mxCell>
        <mxCell id="FgTNJ1v_zo3ldarBhWg2-3" style="edgeStyle=orthogonalEdgeStyle;rounded=0;orthogonalLoop=1;jettySize=auto;html=1;exitX=1;exitY=0.5;exitDx=0;exitDy=0;" edge="1" parent="1" source="FgTNJ1v_zo3ldarBhWg2-2" target="RNQJXxysi92MJcqBM2zN-45">
          <mxGeometry relative="1" as="geometry" />
        </mxCell>
        <mxCell id="FgTNJ1v_zo3ldarBhWg2-2" value="/stewart/curr_pos" style="whiteSpace=wrap;html=1;shadow=1;fontSize=18;fillColor=#f5f5f5;strokeColor=#666666;" vertex="1" parent="1">
          <mxGeometry x="220" y="480" width="207" height="56" as="geometry" />
        </mxCell>
      </root>
    </mxGraphModel>
  </diagram>
</mxfile>
